<svg width="26" height="28" viewBox="0 0 26 28" fill="none" xmlns="http://www.w3.org/2000/svg">
<path d="M20.75 26.5C22.8211 26.5 24.5 24.8211 24.5 22.75C24.5 20.6789 22.8211 19 20.75 19C18.6789 19 17 20.6789 17 22.75C17 24.8211 18.6789 26.5 20.75 26.5Z" stroke="black" stroke-width="2.3613" stroke-linecap="round" stroke-linejoin="round"/>
<path d="M20.75 9C22.8211 9 24.5 7.32106 24.5 5.25C24.5 3.17894 22.8211 1.5 20.75 1.5C18.6789 1.5 17 3.17894 17 5.25C17 7.32106 18.6789 9 20.75 9Z" stroke="black" stroke-width="2.3613" stroke-linecap="round" stroke-linejoin="round"/>
<path d="M5.75 17.75C7.82106 17.75 9.5 16.0711 9.5 14C9.5 11.9289 7.82106 10.25 5.75 10.25C3.67894 10.25 2 11.9289 2 14C2 16.0711 3.67894 17.75 5.75 17.75Z" stroke="black" stroke-width="2.3613" stroke-linecap="round" stroke-linejoin="round"/>
<path d="M17.625 7.125L8.875 12.125" stroke="black" stroke-width="2.3613"/>
<path d="M8.875 15.875L17.625 20.875" stroke="black" stroke-width="2.3613"/>
</svg>
