<svg width="75" height="75" viewBox="0 0 75 75" fill="none" xmlns="http://www.w3.org/2000/svg">
<path fill-rule="evenodd" clip-rule="evenodd" d="M37.5 75C58.2107 75 75 58.2107 75 37.5C75 16.7893 58.2107 0 37.5 0C16.7893 0 0 16.7893 0 37.5C0 58.2107 16.7893 75 37.5 75ZM70.9821 37.5C70.9821 55.9917 55.9917 70.9821 37.5 70.9821C19.0083 70.9821 4.01786 55.9917 4.01786 37.5C4.01786 19.0083 19.0083 4.01786 37.5 4.01786C55.9917 4.01786 70.9821 19.0083 70.9821 37.5ZM39.5902 20.0082C38.8056 19.2237 37.5337 19.2237 36.7491 20.0082L23.9644 32.7929C23.1798 33.5775 23.1798 34.8495 23.9644 35.634C24.7489 36.4185 26.0209 36.4185 26.8054 35.634L36.1607 26.2787V59.5984C36.1607 60.7079 37.0602 61.6073 38.1697 61.6073C39.2792 61.6073 40.1786 60.7079 40.1786 59.5984V26.2787L49.5339 35.634C50.3184 36.4185 51.5904 36.4185 52.3749 35.634C53.1595 34.8495 53.1595 33.5775 52.3749 32.7929L39.5902 20.0082Z" fill="#FFCC00"/>
</svg>
