<svg width="30.000000" height="30.000000" viewBox="0 0 30 30" fill="none" xmlns="http://www.w3.org/2000/svg" xmlns:xlink="http://www.w3.org/1999/xlink">
	<desc>
			Created with Pixso.
	</desc>
	<defs/>
	<path id="fb" d="M26.66 0L3.33 0C1.5 0 0 1.5 0 3.33L0 26.66C0 28.5 1.5 30 3.33 30L15 30L15 18.33L11.66 18.33L11.66 14.2L15 14.2L15 10.79C15 7.18 17.02 4.65 21.27 4.65L24.28 4.65L24.28 8.99L22.28 8.99C20.62 8.99 20 10.24 20 11.39L20 14.21L24.27 14.21L23.33 18.33L20 18.33L20 30L26.66 30C28.5 30 30 28.5 30 26.66L30 3.33C30 1.5 28.5 0 26.66 0Z" fill="#FFCC00" fill-opacity="1.000000" fill-rule="nonzero"/>
</svg>
