<svg aria-hidden="true" style="position: absolute; width: 0; height: 0; overflow: hidden;" version="1.1" xmlns="http://www.w3.org/2000/svg" xmlns:xlink="http://www.w3.org/1999/xlink">
<defs>
<symbol id="icon-fb" viewBox="0 0 32 32">
<path fill="#fc0" style="fill: var(--color1, #fc0)" d="M28.437 0h-24.885c-1.952 0-3.552 1.6-3.552 3.552v24.885c0 1.963 1.6 3.563 3.552 3.563h12.448v-12.448h-3.563v-4.405h3.563v-3.637c0-3.851 2.155-6.549 6.688-6.549h3.211v4.629h-2.133c-1.771 0-2.432 1.333-2.432 2.56v3.008h4.555l-1.003 4.395h-3.552v12.448h7.104c1.963 0 3.563-1.6 3.563-3.563v-24.885c0-1.952-1.6-3.552-3.563-3.552z"></path>
</symbol>
<symbol id="icon-ig" viewBox="0 0 32 32">
<path fill="#fc0" style="fill: var(--color1, #fc0)" d="M6.848 0c-1.813 0-3.563 0.715-4.843 2.005-1.291 1.28-2.005 3.029-2.005 4.843v18.293c0 1.813 0.715 3.563 2.005 4.843 1.28 1.291 3.029 2.016 4.843 2.016h18.293c1.813-0.011 3.563-0.725 4.843-2.016 1.291-1.28 2.016-3.029 2.016-4.843v-18.293c-0.011-1.813-0.725-3.563-2.016-4.843-1.28-1.291-3.029-2.005-4.843-2.005h-18.293zM27.115 6.859c0 0.523-0.213 1.024-0.576 1.397-0.373 0.373-0.875 0.576-1.397 0.576-0.533 0-1.035-0.203-1.397-0.576-0.373-0.373-0.587-0.875-0.587-1.397s0.213-1.024 0.587-1.397c0.363-0.373 0.864-0.576 1.397-0.576 0.523 0 1.024 0.203 1.397 0.576 0.363 0.373 0.576 0.875 0.576 1.397zM16 10.517c-1.451 0-2.848 0.576-3.872 1.6-1.035 1.035-1.611 2.421-1.611 3.872 0 1.461 0.576 2.848 1.611 3.872 1.024 1.035 2.421 1.611 3.872 1.611s2.848-0.576 3.872-1.611c1.024-1.024 1.6-2.411 1.6-3.872 0-1.451-0.576-2.837-1.6-3.872-1.024-1.024-2.421-1.6-3.872-1.6zM7.883 15.989c0-2.144 0.853-4.213 2.379-5.728 1.525-1.525 3.584-2.379 5.739-2.379 2.144 0 4.213 0.853 5.728 2.379 1.525 1.515 2.379 3.584 2.379 5.728 0 2.155-0.853 4.213-2.379 5.739-1.515 1.525-3.584 2.379-5.728 2.379-2.155 0-4.213-0.853-5.739-2.379s-2.379-3.584-2.379-5.739z"></path>
</symbol>
<symbol id="icon-in" viewBox="0 0 32 32">
<path fill="#fc0" style="fill: var(--color1, #fc0)" d="M29.451 0h-27.104c-0.309-0.011-0.608 0.043-0.885 0.16-0.288 0.107-0.544 0.277-0.768 0.491-0.213 0.213-0.384 0.469-0.512 0.747-0.117 0.277-0.181 0.576-0.181 0.885v27.424c0 0.309 0.064 0.608 0.181 0.885 0.128 0.277 0.299 0.533 0.512 0.747 0.224 0.213 0.48 0.384 0.768 0.491 0.277 0.117 0.576 0.171 0.885 0.16h27.104c0.309 0.011 0.608-0.043 0.885-0.16 0.288-0.107 0.544-0.277 0.768-0.491 0.213-0.213 0.384-0.469 0.512-0.747 0.117-0.277 0.181-0.576 0.181-0.885v-27.424c0-0.309-0.064-0.608-0.181-0.885-0.128-0.277-0.299-0.533-0.512-0.747-0.224-0.213-0.48-0.384-0.768-0.491-0.277-0.117-0.576-0.171-0.885-0.16zM9.643 26.773h-4.8v-14.389h4.8v14.389zM7.243 10.368c-0.661 0-1.301-0.267-1.76-0.736-0.469-0.469-0.736-1.099-0.736-1.76 0-0.672 0.267-1.301 0.736-1.771 0.459-0.469 1.099-0.725 1.76-0.725 0.352-0.043 0.704-0.011 1.045 0.096s0.651 0.288 0.907 0.523c0.267 0.235 0.48 0.523 0.619 0.843 0.149 0.331 0.224 0.672 0.224 1.035 0 0.352-0.075 0.693-0.224 1.024-0.139 0.32-0.352 0.608-0.619 0.843-0.256 0.235-0.565 0.416-0.907 0.523s-0.693 0.139-1.045 0.107zM26.955 26.773h-4.8v-7.723c0-1.941-0.693-3.2-2.432-3.2-0.544 0-1.067 0.171-1.504 0.48-0.448 0.32-0.779 0.757-0.96 1.269-0.128 0.373-0.181 0.768-0.16 1.163v8h-4.8v-14.4h4.8v2.037c0.437-0.757 1.067-1.387 1.835-1.813 0.768-0.416 1.632-0.629 2.496-0.587 3.2 0 5.525 2.059 5.525 6.496v8.277z"></path>
</symbol>
<symbol id="icon-share" viewBox="0 0 32 32">
<path stroke-linejoin="round" stroke-linecap="butt" stroke-miterlimit="4" stroke-width="3.5556" d="M29.138 25.956c0-2.364-1.902-4.267-4.249-4.267-2.364 0-4.267 1.902-4.267 4.267 0 2.347 1.902 4.267 4.267 4.267 2.347 0 4.249-1.92 4.249-4.267z"></path>
<path stroke-linejoin="round" stroke-linecap="butt" stroke-miterlimit="4" stroke-width="3.5556" d="M29.138 6.044c0-2.364-1.902-4.267-4.249-4.267-2.364 0-4.267 1.902-4.267 4.267 0 2.347 1.902 4.267 4.267 4.267 2.347 0 4.249-1.92 4.249-4.267z"></path>
<path stroke-linejoin="round" stroke-linecap="butt" stroke-miterlimit="4" stroke-width="3.5556" d="M12.071 16c0-2.364-1.902-4.267-4.267-4.267-2.347 0-4.249 1.902-4.249 4.267 0 2.347 1.902 4.267 4.249 4.267 2.364 0 4.267-1.92 4.267-4.267z"></path>
<path stroke-linejoin="miter" stroke-linecap="butt" stroke-miterlimit="4" stroke-width="3.5556" d="M21.333 8.178l-9.956 5.689"></path>
<path stroke-linejoin="miter" stroke-linecap="butt" stroke-miterlimit="4" stroke-width="3.5556" d="M11.378 18.133l9.956 5.689"></path>
</symbol>
<symbol id="icon-tme" viewBox="0 0 32 32">
<path fill="#fc0" style="fill: var(--color1, #fc0)" d="M3.2 0h25.6c1.767 0 3.2 1.433 3.2 3.2v25.6c0 1.767-1.433 3.2-3.2 3.2h-25.6c-1.767 0-3.2-1.433-3.2-3.2v-25.6c0-1.767 1.433-3.2 3.2-3.2z"></path>
<path fill="#fff" style="fill: var(--color2, #fff)" d="M6.827 15.211c5.824-2.539 9.717-4.213 11.659-5.024 5.557-2.315 6.709-2.709 7.456-2.72 0.171-0.011 0.544 0.032 0.779 0.224 0.203 0.171 0.256 0.395 0.288 0.544 0.021 0.16 0.053 0.512 0.032 0.789-0.299 3.157-1.6 10.837-2.272 14.379-0.277 1.493-0.832 1.995-1.365 2.048-1.163 0.107-2.037-0.768-3.168-1.504-1.76-1.152-2.752-1.867-4.459-2.997-1.973-1.301-0.693-2.016 0.427-3.189 0.299-0.299 5.419-4.96 5.515-5.376 0.011-0.053 0.021-0.256-0.096-0.352-0.117-0.107-0.288-0.075-0.416-0.043-0.171 0.043-2.987 1.899-8.427 5.579-0.8 0.544-1.525 0.811-2.176 0.8-0.715-0.021-2.091-0.405-3.104-0.736-1.259-0.405-2.251-0.629-2.165-1.312 0.043-0.363 0.544-0.736 1.493-1.109z"></path>
</symbol>
<symbol id="icon-x" viewBox="0 0 32 32">
<path fill="#fc0" style="fill: var(--color1, #fc0)" d="M3.2 0h25.6c1.767 0 3.2 1.433 3.2 3.2v25.6c0 1.767-1.433 3.2-3.2 3.2h-25.6c-1.767 0-3.2-1.433-3.2-3.2v-25.6c0-1.767 1.433-3.2 3.2-3.2z"></path>
<path fill="#fff" style="fill: var(--color2, #fff)" d="M21.461 8.533h2.731l-5.963 6.773 7.008 9.227h-5.483l-4.299-5.6-4.917 5.6h-2.731l6.379-7.253-6.72-8.747h5.621l3.883 5.109 4.491-5.109zM20.501 22.901h1.515l-9.749-12.832h-1.621l9.856 12.832z"></path>
</symbol>
</defs>
</svg>
