<svg width="30.000000" height="30.000000" viewBox="0 0 30 30" fill="none" xmlns="http://www.w3.org/2000/svg" xmlns:xlink="http://www.w3.org/1999/xlink">
	<defs/>
	<path id="ig" d="M6.42 0C4.72 0 3.08 0.67 1.88 1.88C0.67 3.08 0 4.72 0 6.42L0 23.57C0 25.27 0.67 26.91 1.88 28.11C3.08 29.32 4.72 30 6.42 30L23.57 30C25.27 29.99 26.91 29.32 28.11 28.11C29.32 26.91 30 25.27 30 23.57L30 6.42C29.99 4.72 29.32 3.08 28.11 1.88C26.91 0.67 25.27 0 23.57 0L6.42 0ZM25.42 6.43C25.42 6.92 25.22 7.39 24.88 7.74C24.53 8.09 24.06 8.28 23.57 8.28C23.07 8.28 22.6 8.09 22.26 7.74C21.91 7.39 21.71 6.92 21.71 6.43C21.71 5.94 21.91 5.47 22.26 5.12C22.6 4.77 23.07 4.58 23.57 4.58C24.06 4.58 24.53 4.77 24.88 5.12C25.22 5.47 25.42 5.94 25.42 6.43ZM15 9.86C13.64 9.86 12.33 10.4 11.37 11.36C10.4 12.33 9.86 13.63 9.86 14.99C9.86 16.36 10.4 17.66 11.37 18.62C12.33 19.59 13.64 20.13 15 20.13C16.36 20.13 17.67 19.59 18.63 18.62C19.59 17.66 20.13 16.36 20.13 14.99C20.13 13.63 19.59 12.33 18.63 11.36C17.67 10.4 16.36 9.86 15 9.86ZM7.39 14.99C7.39 12.98 8.19 11.04 9.62 9.62C11.05 8.19 12.98 7.39 15 7.39C17.01 7.39 18.95 8.19 20.37 9.62C21.8 11.04 22.6 12.98 22.6 14.99C22.6 17.01 21.8 18.94 20.37 20.37C18.95 21.8 17.01 22.6 15 22.6C12.98 22.6 11.05 21.8 9.62 20.37C8.19 18.94 7.39 17.01 7.39 14.99Z" fill="#FFCC00" fill-opacity="1.000000" fill-rule="evenodd"/>
</svg>
