<svg width="29.819824" height="30.000000" viewBox="0 0 29.8198 30" fill="none" xmlns="http://www.w3.org/2000/svg" xmlns:xlink="http://www.w3.org/1999/xlink">
	<desc>
			Created with Pixso.
	</desc>
	<defs/>
	<path id="in" d="M27.61 0L2.2 0C1.91 -0.01 1.63 0.04 1.37 0.15C1.1 0.25 0.86 0.41 0.65 0.61C0.45 0.81 0.29 1.05 0.17 1.31C0.06 1.57 0 1.85 0 2.14L0 27.85C0 28.14 0.06 28.42 0.17 28.68C0.29 28.94 0.45 29.18 0.65 29.38C0.86 29.58 1.1 29.74 1.37 29.84C1.63 29.95 1.91 30 2.2 29.99L27.61 29.99C27.9 30 28.18 29.95 28.44 29.84C28.71 29.74 28.95 29.58 29.16 29.38C29.36 29.18 29.52 28.94 29.64 28.68C29.75 28.42 29.81 28.14 29.81 27.85L29.81 2.14C29.81 1.85 29.75 1.57 29.64 1.31C29.52 1.05 29.36 0.81 29.16 0.61C28.95 0.41 28.71 0.25 28.44 0.15C28.18 0.04 27.9 -0.01 27.61 0ZM9.04 25.1L4.54 25.1L4.54 11.61L9.04 11.61L9.04 25.1ZM6.79 9.72C6.17 9.72 5.57 9.47 5.14 9.03C4.7 8.59 4.45 8 4.45 7.38C4.45 6.75 4.7 6.16 5.14 5.72C5.57 5.28 6.17 5.04 6.79 5.04C7.12 5 7.45 5.03 7.77 5.13C8.09 5.23 8.38 5.4 8.62 5.62C8.87 5.84 9.07 6.11 9.2 6.41C9.34 6.72 9.41 7.04 9.41 7.38C9.41 7.71 9.34 8.03 9.2 8.34C9.07 8.64 8.87 8.91 8.62 9.13C8.38 9.35 8.09 9.52 7.77 9.62C7.45 9.72 7.12 9.75 6.79 9.72ZM25.27 25.1L20.77 25.1L20.77 17.86C20.77 16.04 20.12 14.86 18.49 14.86C17.98 14.86 17.49 15.02 17.08 15.31C16.66 15.61 16.35 16.02 16.18 16.5C16.06 16.85 16.01 17.22 16.03 17.59L16.03 25.09L11.53 25.09L11.53 11.59L16.03 11.59L16.03 13.5C16.44 12.79 17.03 12.2 17.75 11.8C18.47 11.41 19.28 11.21 20.09 11.25C23.09 11.25 25.27 13.18 25.27 17.34L25.27 25.1Z" fill="#FFCC00" fill-opacity="1.000000" fill-rule="nonzero"/>
</svg>
