<svg width="30.000000" height="30.000000" viewBox="0 0 30 30" fill="none" xmlns="http://www.w3.org/2000/svg" xmlns:xlink="http://www.w3.org/1999/xlink">
	<desc>
			Created with Pixso.
	</desc>
	<defs/>
	<rect id="Rectangle 8" rx="3.000000" width="30.000000" height="30.000000" fill="#FFCC00" fill-opacity="1.000000"/>
	<path id="Vector" d="M6.4 14.26C11.86 11.88 15.51 10.31 17.33 9.55C22.54 7.38 23.62 7.01 24.32 7C24.48 6.99 24.83 7.03 25.05 7.21C25.24 7.37 25.29 7.58 25.32 7.72C25.34 7.87 25.37 8.2 25.35 8.46C25.07 11.42 23.85 18.62 23.22 21.94C22.96 23.34 22.44 23.81 21.94 23.86C20.85 23.96 20.03 23.14 18.97 22.45C17.32 21.37 16.39 20.7 14.79 19.64C12.94 18.42 14.14 17.75 15.19 16.65C15.47 16.37 20.27 12 20.36 11.61C20.37 11.56 20.38 11.37 20.27 11.28C20.16 11.18 20 11.21 19.88 11.24C19.72 11.28 17.08 13.02 11.98 16.47C11.23 16.98 10.55 17.23 9.94 17.22C9.27 17.2 7.98 16.84 7.03 16.53C5.85 16.15 4.92 15.94 5 15.3C5.04 14.96 5.51 14.61 6.4 14.26Z" fill="#FFFFFF" fill-opacity="1.000000" fill-rule="nonzero"/>
</svg>
