<svg width="31" height="35" viewBox="0 0 31 35" fill="none" xmlns="http://www.w3.org/2000/svg">
<path d="M15.3038 35H13.2487C12.9966 34.9992 12.7476 34.9448 12.5181 34.8405C12.2885 34.7363 12.0837 34.5844 11.9172 34.395C11.7507 34.2057 11.6263 33.9831 11.5522 33.742C11.478 33.5009 11.4559 33.2469 11.4872 32.9966L12.8435 22.1315H6.30052L5.29646 23.8941C5.09489 24.2446 4.81449 24.5434 4.47749 24.7668C4.14048 24.9901 3.75613 25.1318 3.35488 25.1807L1.99461 25.3335C1.70374 25.3707 1.40819 25.3346 1.13476 25.2286C0.861335 25.1226 0.618685 24.95 0.42882 24.7264C0.237899 24.5035 0.104949 24.2369 0.0417814 23.9503C-0.0213864 23.6637 -0.0128166 23.3658 0.0667308 23.0833L1.58163 17.6606C1.61488 17.5501 1.61488 17.4323 1.58163 17.3218L0.0647737 11.9089C-0.012783 11.6269 -0.0198193 11.3303 0.0442844 11.045C0.108388 10.7597 0.241663 10.4946 0.432355 10.273C0.623047 10.0514 0.865299 9.88021 1.13775 9.77444C1.41019 9.66868 1.70446 9.63161 1.99461 9.66652L3.35488 9.82906C3.75595 9.87776 4.14019 10.0192 4.47718 10.2422C4.81417 10.4651 5.09466 10.7635 5.29646 11.1138L6.30052 12.8763H12.8377L11.4794 2.00537C11.4478 1.75495 11.4697 1.50066 11.5437 1.25935C11.6177 1.01804 11.7421 0.795211 11.9086 0.605618C12.0751 0.416025 12.28 0.263992 12.5097 0.159587C12.7394 0.0551815 12.9886 0.000785131 13.2409 0H15.3038C15.8292 0.00278914 16.3415 0.164596 16.7732 0.464148C17.205 0.7637 17.5361 1.18697 17.7229 1.67832L21.9192 12.8685H23.9665C25.1228 12.8686 26.276 12.9894 27.4073 13.2288C27.9676 13.3206 28.5038 13.5239 28.9842 13.8266C29.4645 14.1294 29.8794 14.5254 30.2042 14.9913C30.5431 15.4686 30.7812 16.0099 30.9041 16.5823C31.0269 17.1547 31.0318 17.7462 30.9186 18.3206C30.7228 19.2189 30.2558 20.0352 29.5808 20.6591C28.9058 21.283 28.0555 21.6842 27.1451 21.8084L26.8319 21.8554C25.7179 22.033 24.5916 22.1227 23.4635 22.1237H21.9232L17.7268 33.3138C17.541 33.8073 17.2099 34.2327 16.7772 34.5337C16.3446 34.8348 15.8308 34.9974 15.3038 35ZM13.4425 33.0416H15.3038C15.4317 33.0416 15.5566 33.0023 15.6616 32.9291C15.7665 32.856 15.8466 32.7524 15.891 32.6323L20.2243 21.0681C20.3243 20.8057 20.5015 20.5797 20.7324 20.4199C20.9634 20.2601 21.2372 20.1741 21.518 20.1732H23.4576C24.4848 20.1722 25.5103 20.0904 26.5246 19.9284L26.8378 19.8794C27.3483 19.8151 27.8273 19.5975 28.2117 19.2552C28.5961 18.9129 28.8677 18.4621 28.9907 17.9622C29.0515 17.6457 29.0481 17.3202 28.9809 17.005C28.9137 16.6898 28.7839 16.3913 28.5993 16.1272C28.4195 15.8681 28.1894 15.6479 27.9227 15.4797C27.6561 15.3114 27.3583 15.1986 27.0472 15.148C26.0323 14.933 24.998 14.8234 23.9606 14.8209H21.5141C21.2336 14.8202 20.9598 14.7344 20.7289 14.575C20.498 14.4156 20.3207 14.19 20.2204 13.9279L15.891 2.36767C15.8466 2.24761 15.7665 2.14402 15.6616 2.07085C15.5566 1.99768 15.4317 1.95842 15.3038 1.95837H13.4425L14.8556 13.2738C14.8817 13.4685 14.8656 13.6666 14.8086 13.8545C14.7515 14.0425 14.6547 14.216 14.5248 14.3632C14.3949 14.5105 14.2349 14.6281 14.0555 14.7081C13.8762 14.7881 13.6818 14.8286 13.4855 14.8268H5.96192C5.7171 14.8278 5.4765 14.763 5.26516 14.6394C5.05381 14.5157 4.87944 14.3377 4.76018 14.1238L3.58584 12.0773C3.53733 11.9916 3.46934 11.9187 3.3874 11.8642C3.30545 11.8098 3.21183 11.7754 3.11414 11.7639L2.02005 11.6249L3.46449 16.795C3.5898 17.2507 3.5898 17.7317 3.46449 18.1874L2.02005 23.3751L3.12002 23.2439C3.21771 23.2324 3.31132 23.198 3.39327 23.1436C3.47522 23.0892 3.5432 23.0162 3.59171 22.9306L4.76605 20.8762C4.886 20.6643 5.06019 20.4882 5.27072 20.3661C5.48124 20.2439 5.7205 20.18 5.96387 20.181H13.4914C13.6879 20.1792 13.8825 20.2198 14.0619 20.2999C14.2414 20.38 14.4016 20.4978 14.5315 20.6452C14.6615 20.7927 14.7582 20.9665 14.8151 21.1547C14.872 21.3429 14.8879 21.5411 14.8615 21.736L13.4425 33.0416Z" fill="black"/>
</svg>
