<svg width="16.399902" height="18.000122" viewBox="0 0 16.3999 18.0001" fill="none" xmlns="http://www.w3.org/2000/svg" xmlns:xlink="http://www.w3.org/1999/xlink">
	<desc>
			Created with Pixso.
	</desc>
	<defs/>
	<path id="Vector" d="M15.39 14.6C15.39 13.27 14.32 12.2 13 12.2C11.67 12.2 10.6 13.27 10.6 14.6C10.6 15.92 11.67 17 13 17C14.32 17 15.39 15.92 15.39 14.6Z" stroke="#000000" stroke-opacity="1.000000" stroke-width="2.000000" stroke-linejoin="round"/>
	<path id="Vector" d="M15.39 3.4C15.39 2.07 14.32 1 13 1C11.67 1 10.6 2.07 10.6 3.4C10.6 4.72 11.67 5.8 13 5.8C14.32 5.8 15.39 4.72 15.39 3.4Z" stroke="#000000" stroke-opacity="1.000000" stroke-width="2.000000" stroke-linejoin="round"/>
	<path id="Vector" d="M5.79 9C5.79 7.67 4.72 6.6 3.39 6.6C2.07 6.6 1 7.67 1 9C1 10.32 2.07 11.4 3.39 11.4C4.72 11.4 5.79 10.32 5.79 9Z" stroke="#000000" stroke-opacity="1.000000" stroke-width="2.000000" stroke-linejoin="round"/>
	<path id="Vector" d="M11 4.6L5.4 7.8" stroke="#000000" stroke-opacity="1.000000" stroke-width="2.000000"/>
	<path id="Vector" d="M5.4 10.2L11 13.4" stroke="#000000" stroke-opacity="1.000000" stroke-width="2.000000"/>
</svg>
