<svg width="380.688965" height="161.740234" viewBox="0 0 380.689 161.74" fill="none" xmlns="http://www.w3.org/2000/svg" xmlns:xlink="http://www.w3.org/1999/xlink">
	<desc>
			Created with Pixso.
	</desc>
	<defs>
		<filter id="filter_90_98_dd" x="0.000000" y="0.000000" width="380.688965" height="161.740234" filterUnits="userSpaceOnUse" color-interpolation-filters="sRGB">
			<feFlood flood-opacity="0" result="BackgroundImageFix"/>
			<feColorMatrix in="SourceAlpha" type="matrix" values="0 0 0 0 0 0 0 0 0 0 0 0 0 0 0 0 0 0 127 0" result="hardAlpha"/>
			<feOffset dx="0" dy="4"/>
			<feGaussianBlur stdDeviation="1.33333"/>
			<feComposite in2="hardAlpha" operator="out" k2="-1" k3="1"/>
			<feColorMatrix type="matrix" values="0 0 0 0 0 0 0 0 0 0 0 0 0 0 0 0 0 0 0.25 0"/>
			<feBlend mode="normal" in2="BackgroundImageFix" result="effect_dropShadow_1"/>
			<feBlend mode="normal" in="SourceGraphic" in2="effect_dropShadow_1" result="shape"/>
		</filter>
	</defs>
	<g filter="url(#filter_90_98_dd)">
		<path id="Vector 4" d="M56.67 0.02Q53.46 -0.03 50.29 0.03L50.35 3.03Q53.46 2.97 56.62 3.02L56.67 0.02ZM46.12 0.16L44.03 0.27L44.18 3.27L46.27 3.16L46.12 0.16ZM67.16 0.49L65.07 0.35L64.86 3.34L66.96 3.49L67.16 0.49ZM77.67 1.57Q74.55 1.16 71.42 0.86L71.13 3.84Q74.21 4.14 77.27 4.55L77.67 1.57ZM35.56 0.99Q32.32 1.36 29.24 1.86L29.72 4.82Q32.73 4.33 35.9 3.97L35.56 0.99ZM25.06 2.61L23.07 3.03L23.68 5.96L25.67 5.55L25.06 2.61ZM88.09 3.24L86.04 2.87L85.5 5.82L87.54 6.19L88.09 3.24ZM98.4 5.52Q95.34 4.75 92.22 4.08L91.59 7.01Q94.66 7.67 97.67 8.43L98.4 5.52ZM14.77 5.21Q11.55 6.22 8.72 7.4L9.87 10.17Q12.58 9.04 15.67 8.07L14.77 5.21ZM108.53 8.42L106.54 7.79L105.64 10.65L107.63 11.28L108.53 8.42ZM4.89 9.17Q4.44 9.4 4 9.64L5.42 12.28Q5.83 12.06 6.25 11.84L4.89 9.17ZM118.49 11.98Q115.56 10.82 112.55 9.76L111.56 12.6Q114.51 13.63 117.38 14.77L118.49 11.98ZM128.14 16.24L126.25 15.33L124.96 18.04L126.85 18.95L128.14 16.24ZM137.47 21.25Q134.77 19.65 131.93 18.15L130.54 20.81Q133.3 22.27 135.94 23.83L137.47 21.25ZM146.34 27.04Q145.48 26.43 144.61 25.82L142.9 28.29Q143.75 28.87 144.58 29.48L146.34 27.04ZM154.62 33.65Q152.25 31.56 149.72 29.58L147.87 31.95Q150.33 33.87 152.63 35.9L154.62 33.65ZM162.17 41.1Q161.46 40.32 160.73 39.55L158.55 41.62Q159.26 42.36 159.95 43.12L162.17 41.1ZM168.86 49.36Q167 46.77 164.95 44.3L162.64 46.22Q164.63 48.61 166.42 51.11L168.86 49.36ZM174.5 58.32Q173.99 57.39 173.46 56.47L170.86 57.98Q171.38 58.87 171.88 59.77L174.5 58.32ZM179.04 67.91Q177.86 64.97 176.48 62.14L173.78 63.45Q175.11 66.19 176.25 69.02L179.04 67.91ZM182.15 77.04L181.85 76.01L178.97 76.84L179.26 77.87L179.56 78.89L182.44 78.06L182.15 77.04ZM185.71 87.68Q184.62 84.89 183.66 81.99L180.81 82.93Q181.8 85.91 182.92 88.77L185.71 87.68ZM189.88 96.94Q189.41 96.03 188.96 95.1L186.26 96.42Q186.73 97.37 187.21 98.31L189.88 96.94ZM194.98 105.7Q193.32 103.18 191.81 100.53L189.2 102.01Q190.76 104.75 192.48 107.35L194.98 105.7ZM201.06 113.87Q200.4 113.08 199.76 112.27L197.42 114.15Q198.08 114.98 198.77 115.79L201.06 113.87ZM204.06 117.25Q203.91 117.09 203.76 116.92L201.55 118.96Q201.72 119.14 201.88 119.31Q203.84 121.41 205.94 123.39L208 121.2Q205.96 119.29 204.06 117.25ZM215.77 127.71Q214.95 127.1 214.15 126.48L212.31 128.85Q213.13 129.49 213.97 130.12L215.77 127.71ZM224.19 133.3Q221.56 131.74 219.06 130.05L217.38 132.54Q219.95 134.28 222.67 135.88L224.19 133.3ZM362.92 136.01L361.9 144.55L361.79 145.48L358.41 145.93L358.81 148.9L361.42 148.55L360.88 153.08L376.68 146.32L362.92 136.01ZM233.19 138Q232.27 137.57 231.36 137.13L230.05 139.83Q230.98 140.28 231.94 140.72L233.19 138ZM242.6 141.84Q239.7 140.8 236.92 139.64L235.76 142.4Q238.61 143.6 241.59 144.66L242.6 141.84ZM252.34 144.89L250.36 144.33L249.55 147.22L251.54 147.78L252.34 144.89ZM262.26 147.21Q259.22 146.6 256.28 145.89L255.58 148.81Q258.58 149.53 261.68 150.15L262.26 147.21ZM354.2 146.51L352.06 146.8L352.47 149.77L354.6 149.48L354.2 146.51ZM344.03 147.84L337.87 148.56L338.22 151.54L344.38 150.82L344.03 147.84ZM272.36 148.89L270.32 148.6L269.9 151.57L271.94 151.86L272.36 148.89ZM333.83 148.99L331.75 149.19L332.04 152.18L334.13 151.97L333.83 148.99ZM282.5 149.99Q279.42 149.73 276.42 149.39L276.08 152.37Q279.12 152.72 282.26 152.98L282.5 149.99ZM323.56 149.89Q320.43 150.12 317.39 150.28L317.55 153.28Q320.62 153.11 323.78 152.88L323.56 149.89ZM313.22 150.49L311.2 150.56L311.32 153.56L313.34 153.48L313.22 150.49ZM292.77 150.58L290.71 150.5L290.6 153.5L292.65 153.58L292.77 150.58ZM303.02 150.73Q299.89 150.75 296.83 150.69L296.78 153.69Q299.87 153.75 303.04 153.73L303.02 150.73Z" fill="#FFCC00" fill-opacity="1.000000" fill-rule="evenodd"/>
	</g>
</svg>
