<svg width="346.487061" height="160.649414" viewBox="0 0 346.487 160.649" fill="none" xmlns="http://www.w3.org/2000/svg" xmlns:xlink="http://www.w3.org/1999/xlink">
	<desc>
			Created with Pixso.
	</desc>
	<defs/>
	<path id="Vector 4" d="M3.1 1.03L2.97 0L0 0.38L0.13 1.41L3.1 1.03ZM4.88 11.03Q4.22 8.07 3.71 5.07L0.76 5.57Q1.28 8.65 1.96 11.68L4.88 11.03ZM7.52 20.81L6.92 18.84L4.05 19.72L4.66 21.69L7.52 20.81ZM10.99 30.26Q9.83 27.47 8.81 24.63L5.99 25.64Q7.03 28.55 8.22 31.41L10.99 30.26ZM15.29 39.45Q14.82 38.55 14.37 37.65L11.68 38.99Q12.15 39.92 12.63 40.83L15.29 39.45ZM20.34 48.22Q18.71 45.64 17.21 42.99L14.6 44.46Q16.13 47.18 17.81 49.83L20.34 48.22ZM26.11 56.53Q25.49 55.72 24.89 54.9L22.47 56.67Q23.08 57.51 23.71 58.34L26.11 56.53ZM32.54 64.36Q30.52 62.09 28.61 59.74L26.28 61.62Q28.23 64.03 30.3 66.35L32.54 64.36ZM191.49 69.48Q189.93 69.42 188.36 69.49L188.5 72.49Q189.94 72.42 191.37 72.48Q192.88 72.54 194.39 72.74L194.78 69.76Q193.14 69.55 191.49 69.48ZM184.09 69.94Q183.05 70.11 182 70.34L182.64 73.27Q183.61 73.06 184.57 72.9L184.09 69.94ZM39.59 71.66Q38.86 70.96 38.14 70.25L36.03 72.38Q36.77 73.11 37.52 73.83L39.59 71.66ZM205.06 72.59Q204.05 72.17 203.05 71.81L202.03 74.63Q202.96 74.97 203.9 75.36L205.06 72.59ZM173.85 72.96Q171.05 74.14 168.18 75.74L169.64 78.36Q172.37 76.84 175.02 75.72L173.85 72.96ZM214.34 77.57Q211.55 75.75 208.86 74.37L207.48 77.03Q210.04 78.35 212.71 80.08L214.34 77.57ZM45.31 76.81Q43.91 75.62 42.55 74.4L40.54 76.63Q41.76 77.72 43 78.79Q44.14 79.75 45.29 80.7L47.19 78.37Q46.24 77.6 45.31 76.81ZM164.63 77.85Q163.74 78.41 162.85 79.01L164.52 81.5Q165.38 80.92 166.23 80.38L164.63 77.85ZM222.74 83.75Q221.91 83.07 221.1 82.43L219.24 84.79Q220.04 85.41 220.85 86.07L222.74 83.75ZM55.27 84.45Q54.43 83.87 53.6 83.27L51.86 85.71Q52.71 86.32 53.57 86.91L55.27 84.45ZM156.12 83.97Q153.77 85.85 151.37 87.98L153.37 90.23Q155.71 88.14 157.99 86.31L156.12 83.97ZM230.58 90.55Q228.14 88.32 225.99 86.47L224.04 88.75Q226.15 90.57 228.56 92.76L230.58 90.55ZM63.83 89.87Q61.22 88.36 58.67 86.71L57.04 89.23Q59.66 90.92 62.33 92.46L63.83 89.87ZM147.45 91.6Q147.09 91.95 146.72 92.28L148.74 94.5Q149.13 94.14 149.52 93.77L150.3 93.03L148.24 90.85L147.45 91.6ZM72.83 94.57Q71.92 94.14 71.01 93.7L69.69 96.39Q70.62 96.85 71.56 97.29L72.83 94.57ZM238.06 97.57L236.63 96.2L234.56 98.37L235.99 99.74L238.06 97.57ZM82.18 98.47Q79.33 97.43 76.48 96.21L75.3 98.97Q78.22 100.22 81.16 101.29L82.18 98.47ZM140.38 97.02Q137.87 98.55 135.12 99.76L136.33 102.51Q139.27 101.22 141.94 99.58L140.38 97.02ZM245.4 104.6L240.96 100.35L238.89 102.52L243.33 106.77L245.4 104.6ZM91.83 101.45Q90.84 101.2 89.85 100.93L89.05 103.82Q90.07 104.1 91.09 104.36L91.83 101.45ZM131.39 101.21Q130.47 101.53 129.52 101.81L130.38 104.69Q131.38 104.39 132.36 104.05L131.39 101.21ZM101.71 103.41Q98.76 103 95.77 102.37L95.15 105.31Q98.24 105.96 101.29 106.38L101.71 103.41ZM121.7 103.53Q118.8 103.95 115.77 104.1L115.92 107.09Q119.09 106.94 122.13 106.5L121.7 103.53ZM111.71 104.18Q110.71 104.17 109.7 104.13L109.59 107.13Q110.64 107.17 111.68 107.18L111.71 104.18ZM253.06 111.77L251.49 110.33L249.46 112.54L251.03 113.98L253.06 111.77ZM260.78 118.58Q258.54 116.68 256.17 114.58L254.18 116.82Q256.57 118.95 258.85 120.87L260.78 118.58ZM268.78 125.01L267.16 123.77L265.33 126.15L266.95 127.39L268.78 125.01ZM277.1 130.92Q274.58 129.26 272.04 127.42L270.28 129.86Q272.87 131.73 275.44 133.42L277.1 130.92ZM285.78 136.2L283.99 135.19L282.51 137.8L284.3 138.81L285.78 136.2ZM294.88 140.76Q292.11 139.52 289.38 138.12L288.01 140.79Q290.82 142.23 293.65 143.5L294.88 140.76ZM331.61 153Q329.71 152.86 327.84 152.66L328.15 149.68Q329.84 149.85 331.55 149.98L331.4 143.45L346.48 151.72L331.78 160.64L331.61 153ZM304.33 144.47Q303.35 144.14 302.38 143.79L301.36 146.61Q302.36 146.97 303.36 147.31L304.33 144.47ZM309.16 145.99Q308.7 145.86 308.25 145.72L307.39 148.6Q307.5 148.63 307.61 148.66Q310.44 149.5 313.32 150.19L314.01 147.27Q311.57 146.69 309.16 145.99ZM324.15 149.19Q323.11 149.04 322.07 148.87L321.59 151.84Q322.66 152.01 323.73 152.16L324.15 149.19Z" fill="#FFCC00" fill-opacity="1.000000" fill-rule="evenodd"/>
</svg>
