<svg width="108.903320" height="141.494629" viewBox="0 0 108.903 141.495" fill="none" xmlns="http://www.w3.org/2000/svg" xmlns:xlink="http://www.w3.org/1999/xlink">
	<desc>
			Created with Pixso.
	</desc>
	<defs/>
	<path id="Vector 4" d="M75.15 3.01Q74.63 3 74.1 3L74.1 0Q74.67 0 75.23 0.01L75.15 3.01ZM84.94 4.61Q82.2 3.72 79.18 3.32L79.57 0.35Q82.86 0.78 85.87 1.76L84.94 4.61ZM92.37 8.29Q92.17 8.15 91.96 8.01L93.64 5.52Q93.88 5.69 94.13 5.86Q94.76 6.3 95.37 6.78L93.53 9.15Q92.96 8.7 92.37 8.29ZM100.1 16.41Q98.47 13.87 96.46 11.78L98.61 9.7Q100.84 12 102.63 14.79L100.1 16.41ZM26.56 87.25Q29.16 84.99 32.1 83.05L33.75 85.55Q30.98 87.38 28.53 89.51L26.56 87.25ZM18.75 95.81Q19.43 94.87 20.15 93.96L22.5 95.82Q21.82 96.68 21.18 97.57L18.75 95.81ZM13.05 105.87Q14.46 102.63 16.21 99.69L18.79 101.22Q17.14 104 15.8 107.07L13.05 105.87ZM36.08 80.64Q37.07 80.09 38.1 79.58L39.45 82.26Q38.47 82.75 37.53 83.27L36.08 80.64ZM46.61 76.03Q49.78 74.94 53.22 74.09L53.94 77.01Q50.63 77.83 47.58 78.87L46.61 76.03ZM9.46 116.7Q9.73 115.57 10.03 114.47L12.93 115.27Q12.64 116.32 12.38 117.4L9.46 116.7ZM10.76 126.6Q11.05 124.15 11.46 121.82L8.5 121.3Q8.05 123.88 7.74 126.6L0 126.6L8.59 141.49L17.19 126.6L10.76 126.6ZM104.19 25.43Q103.9 24.47 103.57 23.54L106.4 22.53Q106.75 23.53 107.06 24.57L104.19 25.43ZM57.71 73.1Q58.81 72.89 59.94 72.69L60.45 75.65Q59.35 75.84 58.28 76.05L57.71 73.1ZM105.9 35.27Q105.72 32.23 105.15 29.31L108.09 28.73Q108.71 31.85 108.9 35.09L105.9 35.27ZM69 71.53Q72.33 71.23 75.83 71.1L75.95 74.1Q72.52 74.23 69.27 74.52L69 71.53ZM105.41 45.27Q105.57 44.28 105.69 43.28L108.67 43.61Q108.55 44.68 108.38 45.74L105.41 45.27ZM81.6 71Q82.1 71 82.6 70.97L82.74 73.97Q82.17 74 81.6 74L80.44 74L80.43 71L81.6 71ZM102.73 54.87Q103.86 52.16 104.61 49.19L107.52 49.92Q106.72 53.11 105.5 56.03L102.73 54.87ZM90.04 69.18Q92.62 68 94.89 66.07L96.83 68.35Q94.25 70.55 91.29 71.91L90.04 69.18ZM97.64 63.32Q98.27 62.58 98.86 61.78L101.28 63.56Q100.62 64.45 99.92 65.27L97.64 63.32Z" fill="#FFCC00" fill-opacity="1.000000" fill-rule="evenodd"/>
</svg>
